<?xml version="1.0" encoding="utf-8"?>
<!-- Generator: Adobe Illustrator 24.0.0, SVG Export Plug-In . SVG Version: 6.00 Build 0)  -->
<svg version="1.1" id="Layer_1" xmlns="http://www.w3.org/2000/svg" xmlns:xlink="http://www.w3.org/1999/xlink" x="0px" y="0px"
	 viewBox="0 0 280 126" style="enable-background:new 0 0 280 126;" xml:space="preserve">
<style type="text/css">
	.st0{fill:#1B1B1B;}
</style>
<g>
	<g>
		<path class="st0" d="M255.62,73.02c0,0.73-0.56,1.3-1.28,1.3l0,0c-0.73,0-1.36-0.57-1.36-1.3V62.9c0-0.72,0.6-1.26,1.33-1.26l0,0
			c0.73,0,1.3,0.53,1.3,1.26V73.02z"/>
		<path class="st0" d="M244.48,77.55c0,0,7.82,0,7.87,0c0.66,0,0.63,0.63,0.63,0.63v3.79c0,0.74,0.61,1.32,1.35,1.32
			c0.72,0,1.29-0.58,1.29-1.32v-4.9c0-1.04-0.61-1.68-1.78-1.68h-9.36c-0.61,0-1.08,0.54-1.08,1.13
			C243.4,77.12,243.87,77.55,244.48,77.55z"/>
		<path class="st0" d="M275.78,71.71h-16.13c-0.62,0-1.08,0.5-1.08,1.11c0,0.62,0.46,1.12,1.08,1.12h6.65v1.53h-3.14
			c-0.47,0-1.51,0.31-1.51,1.6v4.34c0,1.23,1.01,1.59,1.46,1.59h9.22c0.44,0,1.45-0.37,1.45-1.55v-4.43c0-1.23-1.07-1.54-1.51-1.54
			h-3.13v-1.53h6.64c0.6,0,1.07-0.5,1.07-1.12C276.86,72.21,276.38,71.71,275.78,71.71z M270.98,78.18v2.08
			c0,0.41-0.42,0.5-0.56,0.5h-5.47c-0.14,0-0.56-0.1-0.56-0.59v-1.96c0-0.46,0.37-0.61,0.54-0.61h5.56
			C270.64,77.6,270.98,77.76,270.98,78.18z"/>
		<path class="st0" d="M273.79,68.02h-2.06v-3.25h1.74c0.6,0,1.08-0.5,1.08-1.12c0-0.61-0.48-1.11-1.08-1.11h-11.51
			c-0.59,0-1.05,0.5-1.05,1.11c0,0.62,0.47,1.12,1.05,1.12h1.5v3.25h-1.82c-0.58,0-1.08,0.44-1.08,1.05c0,0.62,0.49,1.12,1.08,1.12
			h12.16c0.59,0,1.08-0.5,1.08-1.12C274.88,68.46,274.38,68.02,273.79,68.02z M265.97,64.77h3.24l0.02,3.25h-3.26V64.77z"/>
		<path class="st0" d="M250.99,71.03c-1.78-1.07-4.09-3.2-4.09-5.79v-1.55l0,0c-0.04-0.78-0.64-1.39-1.39-1.39
			c-0.78,0-1.42,0.6-1.46,1.39l0,0v1.38c0,2.72-2.17,4.91-4.32,6.29l0.01,0.01c-0.37,0.36-0.38,1.04-0.06,1.48
			c0.46,0.69,1.19,0.67,1.76,0.29l0,0c0,0,0.01,0,0.02-0.02l0,0c0.95-0.6,1.65-1.22,2.36-1.92c0.82-0.83,1.52-1.67,1.68-2.13
			c0.2,0.48,0.69,1.13,1.62,2.08c0.69,0.62,1.37,1.15,2.32,1.69l0,0c0.55,0.34,1.24,0.32,1.72-0.32
			C251.52,72.07,251.43,71.31,250.99,71.03z"/>
		<g>
			<path class="st0" d="M210.16,70.89c2.97,0,5.37-2.23,5.37-4.89c0-2.64-2.4-4.84-5.37-4.84c-2.97,0-5.37,2.19-5.37,4.84
				C204.79,68.66,207.19,70.89,210.16,70.89z M210.16,63.4c1.55,0,2.73,1.16,2.73,2.6c0,1.47-1.21,2.62-2.73,2.62
				c-1.44,0-2.73-1.15-2.73-2.62C207.43,64.57,208.68,63.4,210.16,63.4z M218.37,71.57h-16.33c-0.6,0-1.09,0.49-1.09,1.08
				c0,0.59,0.49,1.08,1.09,1.08h6.77v1.32c-2.3,0.55-3.87,2.34-3.87,4.43c0,2.49,2.38,4.57,5.32,4.57c2.98,0,5.35-2.08,5.35-4.57
				c0-2.1-1.62-3.95-3.91-4.44v-1.31h6.66c0.63,0,1.1-0.49,1.1-1.08C219.47,72.06,218.99,71.57,218.37,71.57z M212.84,79.49
				c0,1.33-1.16,2.43-2.63,2.43c-1.38,0-2.57-1.12-2.57-2.43c0-1.42,1.24-2.46,2.63-2.46C211.75,77.03,212.84,78.09,212.84,79.49z"
				/>
			<path class="st0" d="M237.08,75.59c0,0.75-0.54,1.34-1.31,1.34l0,0c-0.75,0-1.35-0.59-1.35-1.34V62.9c0-0.74,0.6-1.27,1.35-1.27
				l0,0c0.77,0,1.31,0.53,1.31,1.27V75.59z"/>
			<path class="st0" d="M232.68,71.52L232.68,71.52c-1.3-0.64-2.22-1.15-3-2.08c-0.73-0.91-1.3-2.23-1.3-3.58v-0.81h3.04
				c0.61,0,1.11-0.44,1.11-1.04c0-0.61-0.5-1.09-1.11-1.09h-8.75c-0.62,0-1.12,0.49-1.12,1.09c0,0.61,0.49,1.04,1.12,1.04h2.87v0.87
				c0,1.28-0.55,2.42-1.17,3.38c-0.83,1.19-1.84,2.08-3.01,2.78c-0.42,0.28-0.55,1-0.26,1.48c0.37,0.72,1.1,0.77,1.71,0.46
				l0.12-0.05c1.3-0.74,1.65-1.15,2.62-2.16c0.9-0.87,1.34-1.72,1.52-2.16c0.3,0.5,0.98,1.52,1.79,2.16
				c0.81,0.71,1.33,1.07,2.48,1.62h-0.01l0.1,0.05c0.61,0.23,1.31-0.05,1.56-0.64C233.21,72.38,233.04,71.72,232.68,71.52z"/>
			<path class="st0" d="M236.42,80.7c0,0-7.65,0-7.69,0c-0.71,0-0.67-0.56-0.67-0.56v-3.05c0-0.73-0.58-1.33-1.3-1.33
				c-0.75,0-1.35,0.6-1.35,1.33v4.24c0,1.02,0.64,1.67,1.85,1.67h9.17c0.55,0,1.04-0.51,1.04-1.1
				C237.46,81.23,236.96,80.7,236.42,80.7z"/>
		</g>
	</g>
	<g>
		<g>
			<path class="st0" d="M176.81,18.34c0-0.03,0-0.03-0.09-0.49c0-0.01-0.07-0.46-0.08-0.5c0-0.05-0.04-1.66-0.04-1.66
				c-0.06-1.13-0.67-2.37-1.15-3.34c-0.01-0.01-0.11-0.23-0.11-0.23c-0.25-0.53-0.62-1-0.97-1.46l-0.03-0.03
				c0.01,0-0.26-0.37-0.26-0.37l-0.52-0.71c-0.65-0.88-1.38-1.85-2.21-2.67c-0.46-0.44-1.14-0.62-1.62-0.75
				c0.01,0-0.38-0.12-0.38-0.12c0,0-1.77-0.57-1.77-0.57c0,0-0.38-0.13-0.38-0.13c-1.07-0.36-2.46-0.77-3.72-0.68
				c-0.02,0-1.58,0.19-1.58,0.19c-0.19,0.03-0.32,0.05-0.44,0.09c0.01,0,0.01-0.02,0.01-0.02l-2.29,0.58l-0.94,0.44l-0.43,0.24
				c-0.7,0.35-1.52,0.79-2.15,1.53l-0.02,0.02l-0.41,0.63c-0.01,0.02-0.2,0.35-0.23,0.41c-0.03,0.03-0.58,0.83-0.58,0.83l-0.02,0.04
				l-0.18,0.31c0,0.01-0.09,0.18-0.13,0.26c-0.06,0.05-0.21,0.21-0.21,0.21c0,0-0.18,0.19-0.18,0.19l-0.01,0.02l-0.02,0.02
				c-0.89,1.17-1.34,2.45-1.73,4.01c-0.01,0.02-0.29,1.42-0.29,1.42l-0.01,0.03l-0.02,0.74c0,0.01,0,0.52,0,0.59
				c-0.06,0.49-0.09,0.92-0.09,1.32c0,0.44,0.03,0.82,0.1,1.2c0-0.01,0.11,0.72,0.11,0.72c0,0.01,0.21,1.27,0.21,1.27l0.5,1.42
				c0,0.02,0.16,0.4,0.16,0.4c0.23,0.59,0.4,1.05,0.9,1.52c0.07,0.07,0.39,0.5,0.4,0.51c0.21,0.3,0.44,0.63,0.85,0.82l-0.03-0.01
				l1.32,0.73c0.65,0.39,1.48,0.88,2.37,1.05c2.46,0.49,4.82,0.97,6.6,0.82c1.43-0.12,2.8-0.42,4.28-0.96l0.17-0.05
				c0.68-0.25,1.32-0.61,1.89-1.1c0.01-0.01,0.71-0.48,0.71-0.48l0.39-0.24l0.03-0.02l0.04-0.04l0.71-0.77
				c0.01-0.01,0.41-0.42,0.47-0.48c0.02-0.02,0.35-0.3,0.35-0.3l0.38-0.62c0,0,0.37-0.75,0.37-0.75l0.02-0.02
				c0.35-0.41,0.72-0.81,0.95-1.33c-0.01,0.02,0.33-0.68,0.33-0.68c0.28-0.55,0.58-1.12,0.67-1.71c0,0,0.02-0.15,0.02-0.15l0-0.03
				c0.02-0.65,0.03-0.95,0.03-1.1c0-0.04,0-0.07,0-0.09C176.8,18.31,176.81,18.34,176.81,18.34z M173.86,17.75l-0.02,0.69
				c0,0.01,0.02,0.51,0.02,0.51s-0.03,1.09-0.04,1.25c-0.01,0.06-0.2,1.02-0.2,1.02c0,0-0.16,0.73-0.16,0.73
				c-0.18,0.85-0.64,1.53-1.13,2.26c0,0-0.29,0.44-0.29,0.44c-0.38,0.61-0.97,1-1.86,1.27c-0.05,0.01-1.25,0.26-1.25,0.26
				l-1.07,0.34l-0.11,0.05c-0.34,0.14-0.67,0.27-1.02,0.3c-0.39,0.05-0.77-0.02-1.15-0.09c0,0-0.18-0.03-0.31-0.05
				c0.08-0.07,0.17-0.12,0.19-0.14c0.04-0.02,0.85-0.46,0.86-0.46l0.05-0.02c0.43-0.2,0.88-0.42,1.23-0.76
				c0.51-0.47,1.25-1.21,1.7-2c0.32-0.57,0.52-1.15,0.72-1.77c0.01,0,0.23-0.67,0.23-0.67c0,0.01,0.06-0.17,0.06-0.17
				c0.22-0.64,0.36-1.04,0.23-1.84c-0.01-0.18-0.17-1.72-0.75-2.75c0.02,0.02-0.22-0.45-0.22-0.45c-0.14-0.31-0.31-0.67-0.6-0.99
				c-0.6-0.64-1.28-1.2-1.9-1.66c0,0-0.96-0.77-0.96-0.77c-0.56-0.48-1.08-0.63-1.78-0.83c-0.02-0.01-0.81-0.31-0.81-0.31
				l-0.88-0.33l-0.02,0c-0.81-0.21-1.6-0.37-2.46-0.21c-1.91,0.36-4,2.07-4.94,4.03c-0.59,1.29-1.21,2.8-1.01,4.38l0,0
				c0,0,0.03,0.41,0.03,0.41c0.05,0.59,0.12,1.2,0.4,1.79c0.16,0.31,0.23,0.72,0.29,1.07c0.02,0.17,0.06,0.33,0.11,0.49
				c-0.17-0.16-0.3-0.29-0.3-0.29c-0.41-0.43-0.58-0.88-0.85-1.58l-0.01-0.03l-0.02-0.04l-0.56-1.01l-0.17-0.24
				c-0.12-0.18-0.13-0.51-0.13-0.83c0-0.07,0-0.12,0-0.18v-0.38c0,0-0.01-0.12-0.01-0.14c0-0.03,0.01-0.73,0.01-0.79
				c0.13-0.81,0.48-1.58,0.81-2.32l0.32-0.72c0.24-0.54,0.5-0.89,0.8-1.27c0,0,0.2-0.28,0.22-0.3c0.02-0.02,0.85-0.99,0.85-0.99
				l0.38-0.61c0,0,0.35-0.54,0.44-0.67c0.26-0.29,0.65-0.57,1.03-0.84l0.49-0.36c-0.01,0.01,1.34-0.93,1.43-1
				c0.89-0.48,1.79-0.92,2.86-0.97h0.9c0,0,0.57,0,0.72,0c0.56,0.12,2.08,0.47,2.71,0.78c0.04,0.02,0.75,0.43,0.75,0.43
				c-0.01,0,0.48,0.31,0.48,0.31c1.69,1.02,3.18,2.43,4.54,4.3c0.49,0.67,0.73,1.7,0.94,2.59l0.08,0.33
				c0.09,0.39,0.12,0.76,0.12,1.14C173.87,17.34,173.87,17.54,173.86,17.75z M160.1,24.81c-0.02-0.01-0.5-0.3-0.5-0.3
				c-0.01,0-0.73-0.42-0.73-0.42l-0.41-0.16c0,0-0.43-0.19-0.55-0.24c-0.36-0.24-0.69-0.69-0.97-1.03c0,0-0.34-0.44-0.34-0.44
				c-0.43-0.53-0.67-1.24-0.67-2c0-0.14,0.01-0.28,0.02-0.42c0.11-0.92,0.26-1.96,0.79-2.75c0.01-0.02,0.51-0.83,0.51-0.83
				c0.01-0.01,0.28-0.48,0.28-0.48c0.27-0.44,0.82-1,1.38-1.4c0.01-0.01,0.61-0.49,0.61-0.49c0.62-0.5,1.26-0.99,1.96-1.1
				c0.03,0,1.75-0.15,1.75-0.15c0.71-0.03,1.45,0.59,2.06,1.1l0.13,0.12c0.63,0.73,0.84,0.97,0.93,1.05
				c-0.01-0.01-0.03-0.02-0.03-0.02c0.51,0.6,0.87,1.04,1.16,1.75c0.38,0.92,0.62,1.99,0.71,3.2c0,0.02,0.04,0.33,0.04,0.33
				c0.05,0.34,0.11,0.79,0.02,1.02c-0.14,0.38-0.5,0.75-0.82,1.08c-0.01,0.01-0.52,0.59-0.52,0.59l-0.01,0.01
				c-0.66,0.86-1.71,1.3-2.69,1.72l-0.14,0.07C162.58,25.24,161.39,25.5,160.1,24.81z"/>
			<path class="st0" d="M145.12,49.81c-0.19-0.2-0.46-0.46-0.61-0.67c0,0-0.09-0.13-0.09-0.13c-0.12-0.17-0.23-0.34-0.45-0.51
				c-0.33-0.27-0.6-0.57-0.91-0.89c-0.45-0.45-0.91-0.93-1.51-1.31c-0.17-0.1-0.28-0.21-0.43-0.37c-0.17-0.17-0.38-0.38-0.76-0.68
				c-0.05-0.06-0.13-0.11-0.22-0.18c0,0-0.04-0.02-0.07-0.05c-0.01-0.01-0.04-0.03-0.04-0.03c-0.36-0.32-0.55-0.62-1-0.88
				c-0.17-0.1-0.32-0.26-0.5-0.33c-0.25-0.1-0.49-0.2-0.63-0.33l-0.09-0.08c-0.16-0.15-0.3-0.29-0.6-0.42l-1.07-0.51
				c-1.35-0.57-2.79-1.36-4.42-1.61l-0.57-0.11c-0.43-0.09-1.02-0.18-1.5-0.16c-0.2,0.01-0.98,0.05-1.21,0.08
				c-0.35,0.06-1.03,0.28-1.32,0.46c-0.8,0.48-0.94,1.6-1.15,2.58c-0.05,0.21-0.07,0.42-0.07,0.64c0,0.14,0.01,0.28,0.01,0.42
				l0.01,0.37l-0.01,0.27c-0.01,0.13-0.01,0.28-0.01,0.43c0,0.18,0.01,0.37,0.04,0.52c0,0,0.01,0.04,0.02,0.08
				c0.01,0.08,0.02,0.29,0.02,0.29c0.01,0.14,0.02,0.23,0.04,0.32c0,0.21,0.04,0.33,0.09,0.48l0.04,0.15c0,0,0.12,0.36,0.12,0.36
				l0.12,0.36c0.06,0.27,0.18,0.44,0.29,0.6c0.07,0.11,0.13,0.2,0.18,0.32c0.08,0.21,0.16,0.32,0.23,0.39
				c0.05,0.06,0.07,0.09,0.11,0.18c0.17,0.51,0.48,0.88,0.77,1.24l0.35,0.46c0.26,0.37,0.58,0.66,0.85,0.91l0.12,0.11
				c0.18,0.2,0.46,0.46,0.7,0.64c0,0,0.32,0.2,0.32,0.2c0.11,0.07,0.22,0.13,0.31,0.22c0,0,0.2,0.18,0.2,0.18
				c0.2,0.19,0.41,0.39,0.65,0.56c-0.01,0,0.36,0.29,0.36,0.29c0.23,0.18,0.47,0.38,0.74,0.53c0.28,0.17,0.41,0.27,0.74,0.36
				l0.41,0.18c0,0,0.94,0.39,0.94,0.39l0.06,0.01c0.59,0.16,1.21,0.31,1.91,0.43c0.48,0.09,0.92,0.09,1.34,0.12l0.74,0.06
				c0.34,0.03,0.69,0.01,1.01,0l0.44-0.1l0.6-0.08l0.32-0.1c0.42-0.05,0.85-0.11,1.32-0.32c0,0,0.92-0.46,0.92-0.46l0.15-0.08
				c0.23-0.12,0.67-0.36,1.01-0.65c0.01-0.01,0.3-0.25,0.3-0.25c0.07-0.1,0.14-0.19,0.22-0.26c0,0,0.13-0.12,0.13-0.12
				c0.08-0.07,0.1-0.07,0.18-0.16c0.06,0.14,0.2,0.24,0.22,0.33l0.09,0.26l0.09,0.18c0.07,0.14,0.06,0.15,0.07,0.32l0.02,0.42
				l0.02,0.28c0,0.02,0,0.04,0,0.07c0,0.23,0,0.39-0.07,0.63l-0.13,0.5c0-0.01-0.03,0.09-0.03,0.09c-0.07,0.21-0.15,0.49-0.03,0.74
				c0.14,0.26,0.33,0.3,0.43,0.31c0.3,0.02,0.49-0.26,0.6-0.43l0.04-0.05c0.39-0.56,0.61-1.11,0.67-1.68
				c0.04-0.41,0.19-0.79,0.19-1.09c0-0.46-0.06-1-0.15-1.2c-0.06-0.14-0.28-0.83-0.52-1.1c0-0.02-0.01-0.06-0.01-0.06
				c0-0.01,0-0.02,0-0.03c0-0.06,0.01-0.1,0.03-0.16c0.04-0.05,0.17-0.26,0.17-0.26l0.02-0.02c0.13-0.23,0.23-0.33,0.4-0.59
				c0.28-0.4,0.42-0.75,0.59-1.25c0,0,0.13-0.22,0.13-0.22c0.02-0.1,0.03-0.13,0.06-0.18c0-0.01,0.27-0.47,0.27-0.47
				c0.19-0.25,0.33-0.46,0.51-0.76l0.05-0.08c0.12-0.2,0.25-0.42,0.39-0.57c0,0,0.34-0.42,0.34-0.42c0.26-0.29,0.36-0.46,0.58-0.77
				c0.16-0.22,0.41-0.39,0.49-0.58l0.12-0.25c0,0,0.09-0.12,0.09-0.12l0.13-0.23c0.05-0.08,0.11-0.15,0.15-0.3l0.11-0.14l0.07-0.15
				l0.23-0.27c0.1-0.14,0.23-0.27,0.36-0.42l0.09-0.09l0.18-0.2c0.27-0.3,0.67-0.77,1-0.98c0.48-0.31,1.41-0.9,2.29-0.88l0.28,0.01
				c0,0,0.36-0.02,0.37-0.06c0.16-0.09,0.48-0.05,0.61,0.1c0.06,0.07,0.12,0.23,0.12,0.56c0,0.22-0.1,0.79-0.19,1.19l-0.01,0.04
				c-0.13,0.67-0.06,1.38-0.47,1.87c-0.48,0.58-0.77,1.13-1.28,1.6c-0.32,0.3-0.77,0.65-1.07,0.92l-1.08,0.75l-0.95,0.81
				c-0.2,0.14-0.26,0.23-0.48,0.31l-0.3,0.24l-0.02,0.02c-0.27,0.19-0.28,0.21-0.44,0.36c-0.02,0.02-0.22,0.12-0.21,0.16
				c0,0.02-0.02,0.09,0,0.12c-0.03,0.11,0.04,0.22,0.04,0.22l0.11,0.08c0.23,0.01,1-0.27,1.15-0.33c0,0,0.33-0.15,0.33-0.15
				c0.23-0.1,0.69-0.32,0.85-0.43c0.23-0.14,0.54-0.29,0.89-0.61c0.28-0.26,0.64-0.44,0.9-0.65c0.19-0.14,0.5-0.19,0.67-0.35
				l0.3-0.23l0.48-0.46l0.5-0.44c0,0,0.47-0.45,0.47-0.45c0.36-0.29,0.5-0.66,0.8-1.07c0.24-0.31,0.21-0.6,0.37-0.98l0.14-0.33
				c0.21-0.46,0.22-1.24,0.25-1.8c0.03-0.57-0.1-1.3-0.59-1.77c-0.54-0.53-1.16-0.44-1.74-0.44c-0.28,0-0.58,0.11-0.76,0.14
				l-0.31,0.05c-0.24,0.02-0.51,0.1-0.74,0.16l-0.15,0.04c-0.45,0.11-0.73,0.25-1.04,0.4l-0.49,0.22c-0.5,0.2-0.86,0.5-1.22,0.81
				l-0.27,0.24c-0.37,0.3-0.66,0.51-0.97,0.89l-0.44,0.59c-0.23,0.25-0.5,0.5-0.66,0.73c-0.21,0.31-0.39,0.58-0.7,0.8
				c-0.59,0.41-0.73,0.91-1.24,1.59c-0.12,0.15-0.22,0.26-0.36,0.44c-0.16,0.19-0.38,0.54-0.5,0.77l-0.29,0.5
				c-0.13,0.22-0.27,0.42-0.48,0.76c-0.04,0.06-0.16,0.25-0.18,0.31c-0.12-0.27-0.34-0.29-0.45-0.6L145.12,49.81z M143.62,53.66
				c-0.51,0.35-0.98,0.65-1.47,0.78l-1.21,0.28l-0.96,0.22c-1.02,0.25-2.09,0.13-3.16-0.35c-1.13-0.52-2.27-0.99-3.27-1.4
				c-0.34-0.13-0.68-0.28-0.92-0.5c-0.12-0.11-0.21-0.14-0.29-0.17l-0.04-0.02c-0.21-0.17-0.5-0.29-0.79-0.39
				c-0.21-0.07-0.43-0.16-0.55-0.24c-0.24-0.18-0.73-0.73-1.03-1.2c-0.31-0.48-0.64-0.89-1-1.3c-0.18-0.21-0.32-0.48-0.48-0.76
				l-0.36-0.6c-0.08-0.13-0.12-0.23-0.17-0.43c-0.23-0.72-0.3-1.82-0.16-2.73c0.06-0.41,0.2-0.8,0.33-0.89
				c0.16-0.11,0.46-0.21,0.74-0.2l0.2,0c0.42-0.01,0.84,0.17,1.28,0.24c0.29,0.06,0.61,0.11,0.92,0.14
				c0.62,0.05,1.24,0.16,1.88,0.27l0.41,0.07c0.32,0.05,0.64,0.14,0.97,0.23l0.9,0.22c0.2,0.04,0.39,0.05,0.58,0.06
				c0.2,0.01,0.4,0.12,0.57,0.16c0.32,0.08,0.63,0.18,0.96,0.4l0.4,0.26c0.01,0,0.49,0.27,0.49,0.27c0.34,0.18,0.68,0.36,0.92,0.58
				l0.15,0.15c0.1,0.1,0.2,0.21,0.37,0.31c0.19,0.11,0.39,0.22,0.6,0.33c0.34,0.18,0.5,0.31,0.72,0.55l0.46,0.41
				c0.12,0.19,0.25,0.38,0.42,0.54c0,0,0.06,0.06,0.06,0.06c0.37,0.37,0.65,0.67,0.85,1.13l0.04,0.09c0.16,0.21,0.23,0.24,0.38,0.49
				l0.19,0.24l0.09,0.06c0.22,0.24,0.37,0.56,0.53,0.91c0.1,0.2,0.21,0.42,0.34,0.63c-0.03,0.07-0.07,0.15-0.09,0.2l-0.04,0.09
				l0.01-0.02C144.25,53.12,143.97,53.41,143.62,53.66z M146.76,52.69L146.76,52.69L146.76,52.69
				C146.77,52.7,146.77,52.69,146.76,52.69z"/>
			<g>
				<g>
					<path class="st0" d="M143.74,78.33c0,2.16,0,2.47-0.25,3.34c-0.62,2.52-2.8,4.51-4.93,4.51c-1.65,0-2.8-1.07-2.8-2.58
						c0-0.89,0.36-1.59,1.16-2.12l0.93-0.64c0.78-0.53,1.15-1.73,1.15-3.66V64.15c0.03-1.73,0.96-2.83,2.37-2.83
						c1.43,0,2.37,1.14,2.37,2.83V78.33z"/>
					<path class="st0" d="M152.98,77.17c-0.03,1.73-0.97,2.86-2.37,2.86c-1.41,0-2.39-1.16-2.39-2.86V64.15
						c0.04-1.73,0.97-2.83,2.35-2.83c1.43,0,2.4,1.14,2.4,2.83V77.17z"/>
					<path class="st0" d="M113.91,70.72c-0.01-5.3-3.94-9.52-8.83-9.52c-5,0-8.92,4.22-8.92,9.64v6.25c0,1.74,0.97,2.93,2.44,2.93
						c1.44,0,2.39-1.15,2.43-2.93v-6.4c0.03-2.51,1.74-4.39,4.05-4.39c2.17,0,3.93,1.87,3.98,4.27v6.52c0,1.74,0.97,2.93,2.42,2.93
						c1.44,0,2.38-1.15,2.43-2.93V70.72z"/>
					<path class="st0" d="M174.63,70.72c0-5.3-3.93-9.52-8.81-9.52c-5.01,0-8.92,4.22-8.92,9.64v6.25c0,1.74,1,2.93,2.47,2.93
						c1.42,0,2.36-1.15,2.4-2.93v-6.4c0.03-2.51,1.76-4.39,4.06-4.39c2.19,0,3.93,1.87,3.98,4.27v6.52c0,1.74,0.97,2.93,2.44,2.93
						c1.44,0,2.36-1.15,2.4-2.93V70.72z"/>
					<path class="st0" d="M51.72,61.2c-1.43,0-2.36,1.09-2.4,2.83v7.56c0,1.86-1.25,3.32-2.87,3.32c-1.12,0-2.19-0.72-2.62-1.77
						c-0.25-0.66-0.32-1.12-0.32-2.64v-6.47c0-1.69-0.94-2.83-2.36-2.83c0,0,0,0-0.01,0c-0.01,0-0.01,0-0.01,0
						c-1.39,0-2.32,1.09-2.36,2.83v7.56c0,1.86-1.23,3.32-2.88,3.32c-1.11,0-2.19-0.72-2.62-1.77c-0.25-0.66-0.3-1.12-0.3-2.64
						v-6.47c0-1.69-0.96-2.83-2.4-2.83c-1.4,0-2.33,1.09-2.37,2.83v6.93c0,2.03,0.36,3.8,1.04,5c1.44,2.49,4.03,4.07,6.69,4.07
						c1.94,0,3.85-0.86,5.23-2.35c1.48,1.5,3.39,2.35,5.34,2.35c2.27,0,4.5-1.16,5.93-3.08c1.17-1.62,1.67-3.34,1.67-5.83v-7.09
						C54.07,62.34,53.1,61.2,51.72,61.2"/>
					<path class="st0" d="M85.07,61.11c-4.06,0-7.52,2.97-8.52,6.95h-2.97c-1.02-3.94-4.5-6.9-8.57-6.9c-4.85,0-8.85,4.26-8.85,9.42
						c0,5.3,3.92,9.53,8.81,9.53c4.11,0,7.49-2.88,8.57-6.92h3.04c1.04,3.97,4.43,6.86,8.46,6.86c4.99,0,8.92-4.21,8.92-9.64
						C93.96,65.34,89.92,61.11,85.07,61.11z M64.96,75c-2.22,0-3.99-1.93-3.99-4.34c0-2.39,1.81-4.31,4.03-4.31
						c2.2,0,4.03,1.92,4.03,4.19C69.03,73.06,67.28,75,64.96,75z M85.03,74.94c-2.22,0-3.99-1.93-3.99-4.34
						c0-2.39,1.81-4.3,4.02-4.3c2.2,0,4.03,1.91,4.03,4.19C89.1,73.01,87.35,74.94,85.03,74.94z"/>
				</g>
				<path class="st0" d="M127.95,81.13v-2.64c3.7-1.08,6.38-4.42,6.38-8.45c0-4.99-3.93-8.91-8.95-8.91c-4.73,0-8.65,4.02-8.65,8.88
					c0,4.06,2.78,7.54,6.48,8.52v2.57c-3.66,1.01-6.43,4.51-6.43,8.58c0,4.85,3.95,8.84,8.75,8.84c4.93,0,8.85-3.92,8.85-8.81
					C134.37,85.58,131.69,82.18,127.95,81.13z M121.54,69.99c0-2.22,1.8-4.03,3.9-4.03c2.36,0,4.15,1.74,4.15,4.06
					c0,2.2-1.79,4-4.05,4C123.33,74.03,121.54,72.2,121.54,69.99z M125.58,93.69c-2.21,0-4-1.82-4-4.02c0-2.23,1.79-4.03,3.9-4.03
					c2.36,0,4.15,1.73,4.15,4.06C129.63,91.9,127.84,93.69,125.58,93.69z"/>
			</g>
			<path class="st0" d="M31.06,54.42c-0.01-0.03-0.11-0.15-0.11-0.15l-0.26-0.38l-0.34-0.37l-0.48-0.39l-0.39-0.32l-0.39-0.36
				c-0.46-0.4-0.94-0.83-1.45-1.28l-0.47-0.34l-0.4-0.29l-0.71-0.6l-1.1-0.91l-0.84-0.68l-1.03-0.85l-1.53-1.11l-0.96-0.7
				c0-0.01-0.3-0.24-0.3-0.24l-0.37-0.29l-0.57-0.37l-0.61-0.4l-0.09-0.08l-0.15-0.13l-0.16-0.1l-0.08-0.06
				c-0.3-0.22-0.59-0.49-0.89-0.76l-0.09-0.08l-0.19-0.16l-0.23-0.2l-0.4-0.44c0,0-0.12-0.13-0.15-0.17
				c-0.03-0.05-0.22-0.39-0.22-0.39c0,0.01-0.2-0.4-0.2-0.4c0,0-0.13-0.25-0.26-0.48c0.11-0.05,0.23-0.08,0.34-0.13l1.22-0.54
				L17.78,40c0.31-0.12,0.61-0.25,0.89-0.4c0.29-0.16,0.54-0.34,0.78-0.51l0.52-0.36c0.62-0.39,1.23-0.8,1.82-1.24l0.44-0.29
				c0.31-0.21,0.66-0.45,1.02-0.8c0.29-0.25,0.61-0.6,0.92-0.92l0.54-0.56c0.35-0.35,0.62-0.68,0.91-1.03l0.44-0.52l0.23-0.23
				l0.31-0.31c1.04-1.2,1.88-2.39,2.53-3.51c0.49-0.84,0.86-1.62,1.11-2.36c0.28-0.84,0.37-1.63,0.28-2.52
				c-0.03-0.23-0.13-0.49-0.22-0.72l-0.18-0.49l-0.26-0.01c-0.58,0-1.07,0.03-1.56,0.24c-1.24,0.54-1.84,1.87-2.29,3.22l-0.25,0.6
				l-0.25,0.58l-0.12,0.34c-0.16,0.46-0.31,0.89-0.58,1.28c-0.1,0.16-0.3,0.34-0.48,0.51l-0.41,0.41l-0.14,0.17
				c-0.56,0.66-1.1,1.29-1.83,1.91l-0.45,0.42c-0.15,0.16-0.29,0.31-0.45,0.43c-0.2,0.16-0.43,0.31-0.67,0.45l-0.66,0.45l-0.36,0.28
				l-1.47,1.15c-0.65,0.52-1.33,0.91-1.94,1.27l-0.47,0.27c-0.33,0.19-0.65,0.37-0.97,0.55c-0.08-0.34-0.3-0.92-0.51-1.4l-0.12-0.31
				l-0.15-0.38l-0.2-0.38l-0.12-0.26v0c-0.18-0.49-0.58-0.63-0.79-0.64l-0.03,0l-0.03,0.01c-0.03,0-0.29,0.04-0.52,0.18l-0.2,0.21
				l-0.02,0.03l-0.08,0.08l-0.02,0.11c-0.01,0.12,0.01,0.26,0.07,0.5l0.03,0.14l0.04,0.22l0.07,0.37l0.05,0.28
				c0.02,0.2,0.05,0.42,0.13,0.63l0.17,0.96l0.21,0.67c-0.23,0.1-0.46,0.2-0.72,0.31l-0.51,0.18l-0.63,0.23c0,0-0.46,0.2-0.46,0.2
				c-0.43,0.2-0.97,0.44-1.59,0.68l-0.63,0.21c-0.27,0.08-1.06,0.35-1.32,0.46l-0.63,0.24c-0.34,0.12-0.66,0.23-0.96,0.38
				c-0.19,0.09-0.36,0.21-0.51,0.31L4.3,42.13l-0.23,0.13c-0.28,0.14-0.52,0.28-0.69,0.46c-0.19,0.21-0.23,0.41-0.23,0.56
				c0,0.05,0,0.1,0.01,0.14c0.06,0.28,0.27,0.51,0.61,0.68c0.4,0.2,1.13-0.01,1.34-0.08c-0.02,0,2.22-0.64,2.22-0.64l1.73-0.4
				l0.78-0.23l0.67-0.21c0.9-0.23,1.89-0.51,2.9-0.84l0.01,0.05l0.04,0.28c0,0,0.31,1.07,0.38,1.33c-0.04,0.46-0.11,0.93-0.19,1.41
				l-0.04,0.27l-0.05,0.3l-0.04,0.44l-0.02,0.25c-0.11,0.73-0.29,1.49-0.53,2.36l-0.44,1.45l-0.24,0.82l-0.2,0.66l-0.45,1.14
				l-0.74,2.21c-0.2,0.58-0.33,1.19-0.45,1.79l-0.25,1.09c-0.09,0.34-0.23,0.72-0.37,1.09c-0.15,0.41-0.31,0.82-0.39,1.2l-0.16,0.6
				c-0.08,0.26-0.15,0.52-0.19,0.77L9.06,61.6c0,0.05,0,0.09,0,0.13c0,0.04,0,0.08-0.01,0.1l0.03,0.12c0,0-0.02,0.11,0.03,0.16
				c0.01,0.03,0.05,0.12,0.05,0.12c0.17,0.39,0.3,0.65,0.53,0.74c0.33,0.13,0.69,0.08,1.06-0.15c0.19-0.04,0.22-0.19,0.22-0.19
				s0.1-0.23,0.1-0.25l0.16-0.23c0.05-0.09,0.21-0.21,0.29-0.41l0.44-1.15c0.07-0.26,0.18-0.48,0.29-0.72
				c0.11-0.25,0.1-0.36,0.19-0.67c0.07-0.22,0.11-0.43,0.15-0.62c0.09-0.45,0.31-0.78,0.33-0.89c0.09-0.29,0.2-0.68,0.29-0.93
				c0.19-0.64,0.28-1.14,0.45-1.78c0.2-0.69,0.27-1.43,0.44-2.12c0.5-1.84,0.92-3.65,1.26-5.4l0-0.01l0.13-1.31v-0.01
				c0.01-0.54,0.05-0.98,0.25-1.38c0.07,0.07,0.49,0.45,0.49,0.45l0.66,0.62l1.17,0.92l1.1,0.68l0.23,0.23l0.3,0.29l0.4,0.31
				l0.35,0.27l0.75,0.64l0.25,0.25l0.31,0.3l1.25,1.02l1.16,0.95c0,0,0.82,0.67,0.82,0.67l0.24,0.23l0.31,0.28l0.82,0.67l0.14,0.14
				l0.2,0.2l0.24,0.17l0.17,0.12l1.03,1c0.13,0.12,0.26,0.19,0.37,0.25l0.19,0.12l0.59,0.5l0.05,0.01c0.14,0.04,0.48,0.04,0.66,0.03
				c0.3-0.03,0.5-0.16,0.55-0.2c0.32-0.21,0.53-0.79,0.57-0.99c0.01-0.04,0.02-0.08,0.02-0.12C31.15,54.62,31.11,54.51,31.06,54.42z
				 M8,31.06l0.04,0.03c1.63,1.37,3.47,1.54,5.73,0.58l0.06-0.02l0.04-0.05c1.07-1.04,0.62-2.33,0.28-3.28l-0.11-0.31L14,27.96
				c-2.09-2.59-3.94-1.72-5.33-0.68l-0.04,0.04L8.5,27.54c-0.57,0.84-1.42,2.16-0.53,3.47L8,31.06z"/>
			<path class="st0" d="M94.31,119.97C94.31,119.97,94.31,119.98,94.31,119.97l0,0.01C94.31,119.98,94.31,119.97,94.31,119.97z
				 M108.07,104.27L108.07,104.27c-0.08-0.36-0.6-0.49-0.9-0.66c-0.35-0.21-0.81-0.3-1.23-0.35c-0.65-0.05-1.27,0.01-1.5,0.04
				c-0.26,0.04-0.49,0.09-0.72,0.16c-0.23,0.05-0.45,0.11-0.67,0.13l-0.22,0.02c-0.43,0.04-0.88,0.07-1.33,0.15c0,0,0.01,0,0.02,0
				c-0.07,0.01-0.26,0.03-0.95,0.13c-0.57,0.06-1.11,0.13-1.71,0.3c-0.59,0.17-1.22,0.35-1.85,0.4c-0.37,0.03-0.69,0.02-1,0.01
				c-0.58-0.02-1.17-0.03-1.85,0.19c-0.33,0.11-0.54,0.03-0.89,0.08c0,0-0.5,0.08-0.5,0.08c-0.28,0.05-0.56,0.05-0.87,0.06
				c-0.28,0.01-0.69,0.13-1.01,0.19l0-0.01l0.2-0.78l0.14-0.56c0,0,0.11-0.48,0.11-0.48c0,0.01,0.17-0.73,0.17-0.73
				c0-0.01,0.13-0.58,0.13-0.58c0,0,0.1-0.44,0.11-0.5c0.01-0.02,0.37-1.17,0.37-1.17l0.3-0.98c0.21-0.71,0.56-1.37,0.88-2
				c0.54-1.02,1.09-2.05,1.16-3.42l0.01-0.35c0-1.08-0.09-1.66-0.8-1.97l-0.65-0.37l-0.09,0.01l-0.23,0.03
				c-0.35,0.03-0.9,0.37-1.21,0.82c-0.16,0.26-0.13,0.49-0.18,0.73c0,0-0.15,0.29-0.15,0.29l-0.12,0.39c0,0-0.15,0.49-0.15,0.49
				s0.01-0.01,0.01-0.02c-0.01,0.05-0.04,0.16-0.14,0.57c-0.06,0.34-0.14,0.68-0.25,0.92l-0.16,0.33c-0.1,0.17-0.2,0.38-0.29,0.64
				c-0.08,0.23-0.12,0.44-0.16,0.63c-0.04,0.24-0.08,0.43-0.18,0.64c-0.22,0.49-0.29,0.95-0.33,1.35c-0.04,0.3-0.08,0.56-0.16,0.85
				c-0.01,0.01-0.33,1.09-0.33,1.09c0,0-0.21,0.75-0.21,0.75c-0.19,0.67-0.4,1.42-0.54,2.13c-0.16-0.12-0.29-0.23-0.39-0.34
				c-0.01-0.01-0.75-0.76-0.75-0.76c-0.41-0.41-0.77-0.79-1.11-1.23c-0.36-0.48-0.8-0.84-1.21-1.2c0-0.01-0.7-0.63-0.7-0.63
				c-0.38-0.39-0.86-0.86-1.37-1.52c0,0-0.15-0.19-0.15-0.19c-0.29-0.37-0.6-0.78-0.83-1.12c-0.2-0.31-0.42-0.6-0.7-0.94
				c-0.24-0.27-0.4-0.36-0.57-0.46c0.01,0-0.25-0.16-0.25-0.16l-0.04-0.02l-0.09-0.03l-0.35-0.08l-0.1,0.02
				c-0.26,0.06-0.47,0.2-0.61,0.42c-0.11,0.18-0.17,0.37-0.17,0.6l0.04,0.33c0.1,0.46,0.36,0.69,0.55,0.86h0
				c0,0,0.12,0.12,0.16,0.16c0.22,0.26,0.38,0.63,0.55,1.02c0.16,0.39,0.33,0.79,0.59,1.14c-0.01-0.01,0.45,0.66,0.45,0.66
				c0,0,0.31,0.45,0.31,0.45c0.16,0.25,0.34,0.46,0.54,0.65l0.41,0.45c0.13,0.16,0.26,0.38,0.39,0.63c0.23,0.4,0.46,0.82,0.8,1.13
				c0.14,0.13,0.37,0.44,0.54,0.66l0.18,0.23c0,0,0.21,0.27,0.21,0.27c0.36,0.45,0.7,0.85,0.98,1.33c0.05,0.1,0.1,0.18,0.16,0.25
				c-0.34,0.13-0.71,0.26-1.08,0.44c0,0.01-0.94,0.5-0.94,0.5c-0.47,0.25-0.96,0.52-1.44,0.72c-0.34,0.15-0.69,0.27-1.04,0.38
				c-0.43,0.13-0.86,0.27-1.27,0.46c-0.45,0.2-0.82,0.46-1.18,0.7c0,0-0.62,0.41-0.62,0.41c-0.33,0.19-0.7,0.36-1.07,0.51
				c-0.3,0.15-0.63,0.31-0.95,0.48c0.02-0.01-0.5,0.3-0.5,0.3l-0.59,0.35c0,0,0.01,0,0.01,0c-0.06,0.03-0.14,0.08-0.3,0.16
				c-0.48,0.26-0.93,0.51-1.3,0.82c-0.41,0.34-0.79,0.85-0.88,1.51l-0.25,0.74c0,0.81,0.68,0.98,1.52,1.38
				c1.15,0.55,1.68,0.32,2.74-0.12l0.2-0.08l0.28-0.23l0.01-0.01c0.29-0.25,0.6-0.44,0.93-0.64c0,0,0.4-0.24,0.4-0.24
				c0.01-0.01,0.63-0.44,0.63-0.44c0.27-0.2,0.55-0.39,0.83-0.55c0,0,0.87-0.44,0.87-0.44c0.35-0.17,0.72-0.34,1.06-0.54
				c0.42-0.23,0.65-0.42,0.93-0.65c0,0,0.25-0.21,0.25-0.21c0.33-0.27,0.73-0.47,1.15-0.69c0,0,0.75-0.41,0.75-0.41
				c0.65-0.38,1.2-0.74,1.77-1.16l0.22-0.16c0.44-0.31,0.9-0.49,1.37-0.66c0.01,0.03,0.02,0.07,0.02,0.07l0,0.02
				c0.09,0.29,0.12,0.46,0.15,0.71c0.05,0.32,0.12,0.57,0.19,0.81c0,0,0.11,0.43,0.11,0.43c0.11,0.45,0.28,0.81,0.45,1.16
				c0.18,0.37,0.34,0.68,0.4,1.08c0.2,1.24,0.81,2.48,1.4,3.67c0.26,0.52,0.5,1.03,0.69,1.52c0,0,0.06,0.16,0.06,0.16
				c0.43,1.04,0.95,2.17,1.63,2.47c0.5,0.2,0.79,0.02,0.91-0.12c0.11-0.09,0.23-0.28,0.23-0.6c0-0.21-0.06-0.41-0.11-0.54
				c0-0.01,0-0.01-0.01-0.01v0c-0.01-0.04-0.06-0.14-0.22-0.52c-0.11-0.25-0.2-0.46-0.28-0.71c0,0-0.33-1.04-0.33-1.04
				c-0.25-0.73-0.48-1.43-0.63-2.15c-0.05-0.23-0.13-0.46-0.21-0.69c-0.09-0.25-0.18-0.51-0.2-0.72c-0.07-0.48-0.2-0.91-0.33-1.3
				c0,0-0.13-0.42-0.13-0.42c0,0.01-0.3-1.18-0.3-1.18c-0.11-0.47-0.22-0.93-0.36-1.43l-0.06-0.22c-0.17-0.53-0.37-1.15-0.41-1.67
				c0.24-0.1,0.54-0.11,0.82-0.19c0.48-0.12,0.99-0.21,1.41-0.33c1.1-0.32,2.05-0.53,3.18-0.6l1.01-0.06
				c0.38-0.04,0.72-0.11,1.03-0.18c0,0,0.58-0.12,0.58-0.12c0.26-0.05,0.53-0.07,0.79-0.09c0.39-0.02,0.82-0.05,1.23-0.16
				c0.45-0.13,1.07-0.28,1.75-0.3c0.03,0,0.43,0.02,0.43,0.02c0.27,0.01,0.58,0.03,0.88-0.03l0.01,0l0.35-0.1
				c0.16-0.05,0.24-0.08,0.41-0.07c0.33,0.01,0.61-0.01,0.93-0.04l-0.04,0l0.28-0.01c0.52-0.02,1.35-0.05,1.71-0.54
				C107.79,104.93,108.14,104.54,108.07,104.27z M90.89,105.19L90.89,105.19c0.01-0.01,0.04-0.01,0.04-0.01
				S90.91,105.18,90.89,105.19z M94.31,119.98L94.31,119.98L94.31,119.98L94.31,119.98z"/>
		</g>
		<path class="st0" d="M194.72,35.59l-0.32,0.27c-0.02,0.02-0.56,0.42-0.56,0.42c0.01,0-0.18,0.14-0.18,0.14l-0.36,0.28
			c0.01-0.01-0.2,0.14-0.2,0.14l-0.33,0.24c0,0.01-0.67,0.5-0.67,0.5l-0.19,0.13c-0.07,0.05-0.64,0.5-0.64,0.5l-0.69,0.54
			c-0.07,0.04-0.49,0.46-0.49,0.46c-0.05,0.05-0.23,0.34-0.23,0.34l-0.19,0.27l-0.01,0.27l0.03,0.13c0.07,0.25,0.26,0.52,0.56,0.55
			c0.04,0,0.48,0.09,0.48,0.09l0.3-0.01c0.09-0.02,0.27-0.07,0.27-0.07c0.09-0.05,0.65-0.45,0.65-0.45l1.1-0.7l1.27-0.79
			c-0.01,0,1.05-0.7,1.05-0.7l0.92-0.6c0.02-0.01,0.16-0.09,0.16-0.09c-0.02,0.01,0.26-0.11,0.26-0.11l0.24-0.11
			c0,0,1.71-1.02,1.71-1.02l1.67-1.11c0,0,0.31-0.18,0.31-0.18l0.61-0.39c0.09-0.08,0.11-0.1,0.11-0.1c0,0,1.94-1.18,1.94-1.18
			c0.04-0.03,0.96-0.78,0.96-0.78c0,0,0.17-0.13,0.17-0.13c0.38-0.32,0.46-0.64,0.46-0.96c0-0.14-0.02-0.28-0.04-0.41
			c0,0,0-0.01,0-0.02c0-0.01-0.26-0.73-0.26-0.73c-0.01-0.01-0.78-0.49-0.78-0.49c-0.95-0.29-1.58,0.32-1.61,0.35
			c0.04-0.03-0.25,0.18-0.25,0.18c-0.09,0.07-0.12,0.1-0.12,0.1c0,0.01-0.29,0.18-0.29,0.18c0.01,0-0.27,0.23-0.27,0.23l-0.15,0.13
			c-0.01,0.01-0.33,0.26-0.33,0.26l-0.89,0.73l-1.2,0.94l-0.43,0.35l-0.12,0.11c0.01,0-0.41,0.25-0.41,0.25l-1.54,0.93l-0.33,0.24
			l-1,0.78C194.87,35.45,194.72,35.59,194.72,35.59z M204.86,30.92c0,0,0,0.01,0,0.02h0L204.86,30.92z M195.33,25.62l-0.58-0.38
			c-0.44-0.1-0.79,0.12-1.03,0.29l-0.2,0.12l-0.66,0.51c-0.01,0.01-0.28,0.47-0.28,0.47c-0.01,0.01-0.28,0.39-0.28,0.39
			c0,0-0.27,0.41-0.27,0.41c0,0-0.12,0.2-0.12,0.2l-0.14,0.19c0,0-0.51,0.71-0.51,0.71c-0.01,0-0.28,0.38-0.28,0.38
			c-0.02,0.03-0.67,0.93-0.67,0.93l-0.4,0.6c0,0-0.13,0.15-0.13,0.15l-0.39,0.58c0,0-0.26,0.43-0.26,0.43
			c-0.02,0.03-0.39,0.53-0.39,0.53c0,0-0.45,0.59-0.45,0.59c-0.02,0.03-0.35,0.52-0.35,0.52c-0.04,0.04-0.7,0.87-0.7,0.87
			l-0.28,0.35c-0.01,0.02-0.18,0.3-0.18,0.3l-0.24,0.33c-0.06,0.08-0.27,0.51-0.27,0.51c-0.03,0.1-0.07,0.4-0.07,0.4
			c-0.03,0.15-0.01,0.39,0.14,0.58l0.06,0.11c0.03,0.05,0.17,0.24,0.39,0.34c-0.01-0.01-0.05-0.01-0.06-0.02l0.17,0.08
			c0.14,0.07,0.35,0.11,0.61-0.04c0,0.01,0.46-0.25,0.46-0.25l0.06-0.03l0.07-0.08l0.71-0.87l0.73-0.89c0,0,0.15-0.2,0.15-0.2
			c0.03-0.04,0.36-0.45,0.36-0.45l0.73-0.98l0.51-0.72c0,0,1.3-1.56,1.3-1.56l1.24-1.58c0,0.01,0.47-0.51,0.47-0.51l0.52-0.55
			c0.01-0.01,0.53-0.89,0.53-0.89c0,0,0.07-0.21,0.07-0.21s0.16-1.01,0.16-1.01C195.57,26.26,195.34,25.63,195.33,25.62
			L195.33,25.62z M204.91,38.27c-0.14-0.36-0.47-0.57-0.89-0.55c-0.02,0-0.66,0.15-0.66,0.15c-0.07,0.03-0.76,0.32-0.76,0.32
			c0,0-0.3,0.18-0.3,0.18l-0.19,0.11l-0.15,0.07l-1.03,0.58c0,0-1.45,0.81-1.45,0.81l-0.45,0.21c0,0-1.67,1.01-1.67,1.01
			c-0.05,0.04-0.52,0.3-0.52,0.3l-1.69,0.81l-0.6,0.24c-0.11,0.05-0.27,0.13-0.27,0.13l-0.8,0.38c-0.07,0.04-0.32,0.17-0.32,0.17
			c0.02-0.01-0.43,0.36-0.43,0.36c0.04-0.05-0.33,0.32-0.33,0.32c-0.05,0.05-0.25,0.28-0.2,0.56c0.03,0.13,0.1,0.31,0.35,0.43
			l0.02,0.01l0.1,0.08l0.42,0.14c0.04,0,0.34,0.03,0.34,0.03c0.06,0,0.61-0.13,0.61-0.13l0.34-0.2l0.84-0.48l0.96-0.42l0.46-0.17
			l1.22-0.49l0.88-0.44l1.81-0.81c0,0,1.75-0.76,1.75-0.76c0.01,0,1.32-0.59,1.32-0.59c0.09-0.03,0.76-0.43,0.76-0.43
			c0,0,0.52-0.6,0.52-0.6c0.09-0.17,0.14-0.38,0.14-0.6C205.05,38.73,204.98,38.46,204.91,38.27z M204.91,38.27L204.91,38.27
			C204.91,38.27,204.91,38.27,204.91,38.27L204.91,38.27z M198.76,50.25c0,0-0.5-0.23-0.5-0.23l-1.44-0.55l-1.15-0.42
			c-0.01,0-2.86-1.01-2.86-1.01l-0.76-0.16l-1.03-0.23c-1.01-0.24-2.05-0.48-3.12-0.18c0,0-0.58,0.2-0.58,0.2l-1.09,0.3l-1.11-0.17
			c0,0-0.53-0.15-0.53-0.15l-0.76-0.26c0,0-0.8-0.51-0.8-0.51c-0.33-0.28-0.52-0.81-0.57-1.58c0,0,0.06-0.94,0.06-0.94l0.05-1
			c0,0.01,0.07-0.67,0.07-0.67l0.04-0.36l0.08-1.04c0,0,0.39-2.2,0.39-2.2l0.21-0.96c0,0,0.04-0.17,0.04-0.17l0.2-0.84
			c0,0,0.14-0.86,0.14-0.86l0.07-0.45c0-0.01,0.09-0.34,0.09-0.34c0.02-0.13,0.25-1.36,0.25-1.36l0.37-1.22c0,0,0.22-0.49,0.22-0.49
			l0.46-1.12l0.53-1.25c-0.01,0.02,0.3-0.54,0.3-0.54c-0.02,0.03,0.12-0.22,0.12-0.22c0,0,0.3-0.45,0.3-0.45
			c0,0,0.17-0.25,0.17-0.25l0.17-0.25c-0.01,0.01-0.01,0.01-0.01,0.01c0-0.01,0.15-0.24,0.16-0.25c0-0.01,0.17-0.36,0.17-0.36
			c0.02-0.09,0.02-0.18,0.02-0.27c0-0.27-0.07-0.53-0.19-0.72c-0.15-0.25-0.47-0.77-1.04-0.8c-0.34-0.02-0.72,0.12-1.16,0.41
			c0,0-0.45,0.44-0.45,0.44c-0.39,0.4-0.69,1.06-0.85,1.54c0,0-0.23,0.7-0.23,0.7l-0.39,1.3c0-0.01-0.34,0.92-0.34,0.92l-0.33,0.84
			c0,0-0.13,0.38-0.13,0.38l-0.22,0.71c0,0.01-0.11,1.17-0.11,1.17c0.01-0.07-0.3,1.64-0.3,1.64c0,0-0.1,0.6-0.1,0.6l-0.37,1.77
			c0,0-0.09,0.27-0.09,0.27c-0.36,1.17-0.77,2.5-0.77,3.79c0,0.06,0.02,1.17,0.02,1.17c0.01,1.11,0.01,2.25,0.33,3.24l0.39,0.82
			c0,0,0.22,0.33,0.22,0.33c-0.01-0.01,0.41,0.48,0.41,0.48c-0.01,0,0.14,0.13,0.14,0.13l0.17,0.17c-0.01-0.01,0.68,0.5,0.68,0.5
			l0.18,0.1l0.23,0.16l0.61,0.34c0,0,0.86,0.26,0.86,0.26c0,0,1.12,0,1.12,0c0,0,0.34-0.05,0.34-0.05l0.95-0.09
			c0.13,0,1.06,0.01,1.06,0.01c0.01,0,0.97-0.18,0.97-0.18l1.15-0.17l1.55,0.47l0.73,0.29l0.48,0.16l0.85,0.35l1.02,0.68l2.08,1.17
			l0.59,0.32l0.38,0.22l1.24,0.46l0.52,0.17c0,0,0.16,0.05,0.16,0.05c0.33,0.12,0.78,0.28,1.16,0c0.31-0.21,0.46-0.63,0.46-0.96
			c0-0.01,0-0.02,0-0.03c0.02-0.13,0.03-0.24,0.03-0.36C201.17,51.33,199.79,50.72,198.76,50.25z"/>
		<path class="st0" d="M190.36,75.17l0.03-0.04l0.02-0.04c0.76-1.31,0.04-2.36-0.6-3.28l-0.37-0.53l-0.08-0.04
			c-1.33-0.67-2.67-0.83-3.72-0.46c-0.8,0.27-1.41,0.81-1.79,1.63c-0.03,0.09-0.15,0.72-0.15,0.72c-0.23,0.99-0.48,2.11,0.58,3.02
			C186.86,77.05,188.76,76.71,190.36,75.17z M194.78,99.25L194.78,99.25l-0.02-0.05L194.78,99.25l-0.62-0.76
			c0,0-0.42-0.36-0.42-0.36c-0.01-0.01-1.13-1.11-1.13-1.11l-0.33-0.32l-0.39-0.42l-0.36-0.52l-0.26-0.41l-0.22-0.33l-0.59-0.97
			c0,0-0.54-1.08-0.54-1.08l-0.43-1.04l-0.21-0.52l-0.2-0.79c0-0.01-0.18-0.65-0.18-0.65l-0.13-0.53l-0.21-1.07l-0.12-0.61
			c0,0-0.15-1.54-0.15-1.54l-0.07-0.81l-0.14-2.08c0-0.01-0.03-1.35-0.03-1.35c0-0.04-0.18-1-0.18-1.01l-0.14-1.71
			c-0.24-0.63-0.52-0.88-0.87-0.89c-0.24,0-0.6,0.13-0.9,0.81l-0.22,0.64l-0.11,0.5c0-0.01-0.14,0.98-0.14,0.98l-0.01,2.56
			l0.03,0.97l0.09,0.89l0.26,2.22l0.13,0.87l0.25,1.37l0.17,0.62l0.26,0.92l0.88,2.07l0.1,0.34l0.19,0.58l1.03,1.64l0.47,0.62
			l0.28,0.34l0.65,0.69c0,0,0.05,0.04,0.07,0.06c-0.07-0.02-0.13-0.03-0.13-0.03l-0.55-0.05l-1.1-0.2l-0.67-0.19l-0.38-0.11
			l-0.62-0.2l-1.02-0.31l-0.48-0.07l-0.15-0.03l0,0c0-0.01-0.96-0.2-0.96-0.2l-0.45-0.09l-0.39-0.1l-0.7-0.16l-0.9-0.19l-1.25-0.01
			c0,0-0.27,0.13-0.27,0.13c-0.21,0.16-0.33,0.39-0.34,0.61c0,0.21,0.08,0.38,0.25,0.53c0,0,0.77,0.31,0.77,0.31
			c0.1,0.02,0.94,0.29,0.94,0.29l0.37,0.13l0.83,0.25l0.23,0.04l0.25,0.05l0.33,0.14c0.13,0.03,0.79,0.24,0.79,0.24l0.28,0.13
			l0.4,0.19c0,0,1.71,0.54,1.71,0.54l1.32,0.38c0,0,0.88,0.26,0.88,0.26c0.06,0.01,0.85,0.21,0.85,0.21l1.04,0.17l0.53,0.03
			l1.43,0.03c0.19-0.01,1.16-0.08,1.54-0.67C194.83,99.92,194.92,99.63,194.78,99.25z"/>
	</g>
</g>
</svg>
